<?xml version="1.0" encoding="UTF-8"?>
<svg width="21px" height="15px" viewBox="0 0 21 15" version="1.1" xmlns="http://www.w3.org/2000/svg" xmlns:xlink="http://www.w3.org/1999/xlink">
    <!-- Generator: Sketch 59.1 (86144) - https://sketch.com -->
    <title>Path</title>
    <desc>Created with Sketch.</desc>
    <g id="Page-1" stroke="none" stroke-width="1" fill="none" fill-rule="evenodd">
        <g id="Homepage" transform="translate(-248.000000, -857.000000)" fill="#FFFFFF" fill-rule="nonzero">
            <g id="locations" transform="translate(0.000000, 830.000000)">
                <g id="location-01">
                    <g id="Group" transform="translate(50.000000, 10.000000)">
                        <g id="right-arrow" transform="translate(184.000000, 0.000000)">
                            <path d="M27.8293478,17.2171739 C27.5495652,16.9276087 27.083913,16.9276087 26.7943478,17.2171739 C26.5145652,17.4969565 26.5145652,17.9626087 26.7943478,18.2417391 L32.0423913,23.4897826 L14.7245652,23.4897826 C14.3208696,23.4904348 14,23.8113043 14,24.215 C14,24.6186957 14.3208696,24.95 14.7245652,24.95 L32.0423913,24.95 L26.7943478,30.1882609 C26.5145652,30.4778261 26.5145652,30.9441304 26.7943478,31.2232609 C27.083913,31.5128261 27.5502174,31.5128261 27.8293478,31.2232609 L34.3197826,24.7328261 C34.6093478,24.4530435 34.6093478,23.9873913 34.3197826,23.7082609 L27.8293478,17.2171739 Z" id="Path"></path>
                        </g>
                    </g>
                </g>
            </g>
        </g>
    </g>
</svg>