<?xml version="1.0" encoding="UTF-8"?>
<svg width="480px" height="900px" viewBox="0 0 480 900" version="1.1" xmlns="http://www.w3.org/2000/svg" xmlns:xlink="http://www.w3.org/1999/xlink">
    <!-- Generator: Sketch 59.1 (86144) - https://sketch.com -->
    <title>Fill 13</title>
    <desc>Created with Sketch.</desc>
    <g id="Page-1" stroke="none" stroke-width="1" fill="none" fill-rule="evenodd" opacity="0.200190662">
        <g id="Homepage" transform="translate(-1444.000000, 0.000000)" stroke="#979797">
            <g id="about" transform="translate(1444.000000, 0.000000)">
                <g id="Fill-13" transform="translate(254.000000, 450.000000) rotate(89.000000) translate(-254.000000, -450.000000) translate(-285.000000, -14.000000)">
                    <polygon points="9.37916411e-13 176.118596 9.37916411e-13 780.035871 452.836789 755.964604"></polygon>
                    <path d="M299.703345,63.3775371 C353.975476,60.0039127 415.288572,93.2599476 453.316868,146.494323 C482.146723,186.850166 503.789419,217.249258 535.212381,253.777607 C566.728375,290.413345 609.603241,307.998742 650.602682,301.103581 C670.009635,297.839371 688.787509,289.412402 708.153115,285.728769 C727.51872,282.045135 748.507233,283.672175 764.690523,298.724821 C793.823104,325.821205 798.894134,387.358952 829.795816,410.473852 C844.90406,421.773974 863.667167,421.133694 879.843074,413.091703 C896.020457,405.047686 909.970959,390.294917 922.577652,374.22917 C931.243,363.186376 939.56575,351.26421 949.920457,343.422812 C960.275164,335.583441 973.363265,332.404332 983.889271,339.797939 C991.215241,344.942463 996.333526,354.388611 1001.18157,363.508541 C1026.1705,410.516402 1051.15795,457.522236 1076.1454,504.52807 L1077.17171,1.26232314 L0.203933973,-2.84217094e-14 L0.203933973,63.0371354 L299.703345,63.3775371" id="Fill-14"></path>
                    <path d="M700.619372,925.617998 C760.827887,882.628094 787.791177,790.912112 784.942599,697.864915 C784.093489,670.178907 778.874788,643.139256 773.685621,616.358959 C764.019062,566.461736 757.023876,490.469072 739.157133,445.029492 C700.244287,346.069841 625.087013,307.110051 554.234355,250.601334 C530.395788,231.589492 506.061045,212.662749 486.589117,185.872321 C463.638054,154.298033 448.289106,112.900723 423.182043,84.5825397 C384.062456,40.4599895 323.120015,37.7084087 281.971426,78.2081118 C253.360125,106.370278 235.555404,150.936566 223.805204,196.481509 C212.055004,242.026452 205.430473,289.8144 193.773306,335.40392 C161.555873,461.425509 89.4790208,567.187116 0.000590684937,619.738662 L0.430313973,926.073893 L700.619372,925.617998 Z" id="Fill-16"></path>
                    <path d="M141.400965,923.520678 C134.085332,891.411472 130.848378,857.561761 131.882077,823.951141 C132.686885,797.800992 137.298658,768.980311 152.922274,753.966162 C163.093869,744.191769 176.243992,742.151385 188.624748,743.470442 C229.353951,747.800433 264.285581,783.939752 294.562614,821.568328 C324.839647,859.194879 354.308918,900.865726 392.455351,920.91701 L410.345721,926.073691 L141.400965,923.520678 Z" id="Fill-18"></path>
                    <path d="M311.805593,2.46487336 C281.815042,108.625642 298.685004,229.249432 333.665366,332.492472 C363.623429,420.915878 411.102684,501.749135 418.635393,598.708926 C419.480073,609.567336 419.788705,620.672943 417.960536,631.302393 C412.80681,661.269904 390.595579,682.030358 368.198284,683.916751 C345.800988,685.801118 323.936785,671.692681 306.876327,651.690026 C289.81587,631.685345 276.820801,606.092402 264.06053,580.764891 C232.364377,517.845275 200.200105,453.657258 156.306308,406.50959 C112.413988,359.363948 54.0454562,331.118707 0.203047945,350.926847 L0.203047945,63.0361223 C0.203047945,63.0361223 26.7823932,50.6074061 47.1876041,0.823650655 L311.805593,2.46487336 Z" id="Fill-22"></path>
                </g>
            </g>
        </g>
    </g>
</svg>